<svg xmlns="http://www.w3.org/2000/svg" xmlns:xlink="http://www.w3.org/1999/xlink" version="1.1" x="0px" y="0px" viewBox="0 0 100 125" style="enable-background:new 0 0 100 100;" xml:space="preserve"><title>44 all</title><g><path d="M76,16H24c-5.8,0-10.5,4.7-10.5,10.5v47C13.5,79.3,18.2,84,24,84h52c5.8,0,10.5-4.7,10.5-10.5v-47   C86.5,20.7,81.8,16,76,16z M43.3,59l-11,10c-1,0.9-2.6,0.8-3.5-0.3c-0.9-1-0.8-2.5,0.2-3.4l9-8.2l-9-8.2c-1-1-1-2.5-0.1-3.5   c0.9-1,2.4-1,3.4-0.2l11,10c1,0.9,1.1,2.5,0.2,3.5C43.4,58.8,43.4,58.9,43.3,59L43.3,59z M69,71.5H47.7c-1.4,0-2.5-1.1-2.5-2.5   s1.1-2.5,2.5-2.5H69c1.4,0,2.5,1.1,2.5,2.5S70.4,71.5,69,71.5z M81.5,32.3h-63v-5.8c0-3,2.5-5.5,5.5-5.5h52c3,0,5.5,2.5,5.5,5.5   V32.3z"/></g><text x="0" y="115" fill="#000000" font-size="5px" font-weight="bold" font-family="'Helvetica Neue', Helvetica, Arial-Unicode, Arial, Sans-serif">Created by Adiyogi</text><text x="0" y="120" fill="#000000" font-size="5px" font-weight="bold" font-family="'Helvetica Neue', Helvetica, Arial-Unicode, Arial, Sans-serif">from the Noun Project</text></svg>